<?xml version="1.0" encoding="UTF-8" standalone="no"?>
<svg
   xmlns:dc="http://purl.org/dc/elements/1.1/"
   xmlns:cc="http://creativecommons.org/ns#"
   xmlns:rdf="http://www.w3.org/1999/02/22-rdf-syntax-ns#"
   xmlns:svg="http://www.w3.org/2000/svg"
   xmlns="http://www.w3.org/2000/svg"
   xml:space="preserve"
   style="enable-background:new 0 0 121.1 43.4;"
   viewBox="0 0 121.1 43.4"
   y="0px"
   x="0px"
   id="Layer_1"
   version="1.1"><metadata
   id="metadata14"><rdf:RDF><cc:Work
       rdf:about=""><dc:format>image/svg+xml</dc:format><dc:type
         rdf:resource="http://purl.org/dc/dcmitype/StillImage" /><dc:title></dc:title></cc:Work></rdf:RDF></metadata><defs
   id="defs12" />
<style
   id="style2"
   type="text/css">
	.st0{fill:#54565A;}
	.st1{fill:#009845;}
</style>

<g
   transform="translate(10)"
   id="g20">
	<path
   d="M58.6,23c-0.4-0.7,0.1-1.3,0.1-1.3l5.1-5.3   c0.6-0.6-0.3-0.6-0.3-0.6h-4.8c-0.8,0-1.4,0.6-1.4,0.6l-4.7,5C52,22,52,21.2,52,21.2v-11c0-0.8-0.8-0.8-0.8-0.8h-3.6   c-0.8,0-0.8,0.8-0.8,0.8v23c0,0.8,0.8,0.8,0.8,0.8h3.6c0.8,0,0.8-0.8,0.8-0.8v-4c0-0.8,0.6-1.4,0.6-1.4l1.7-1.6l4.2,7.1   C59,34,59.8,34,59.8,34h4.5c0.8,0,0.4-0.7,0.4-0.7L58.6,23z M43,33.1V16.6c0-0.8-0.8-0.8-0.8-0.8h-3.6c-0.8,0-0.8,0.8-0.8,0.8v16.5   c0,0.8,0.8,0.8,0.8,0.8h3.6C43,34,43,33.1,43,33.1z M42.9,12.6v-2.4c0,0,0-0.8-0.8-0.8h-3.5c0,0-0.8,0-0.8,0.8v2.4   c0,0,0,0.8,0.8,0.8h3.5C42.1,13.4,42.9,13.4,42.9,12.6z M33.8,33.1V10.2c0-0.8-0.8-0.8-0.8-0.8h-3.7c-0.8,0-0.8,0.8-0.8,0.8v22.9   c0,0.8,0.8,0.8,0.8,0.8H33C33.8,34,33.8,33.1,33.8,33.1z M25.5,32.2c0,0,0.5-0.5-0.1-1l-3-2.6c1.3-2,2.1-4.3,2.1-6.9   c0-6.8-5.5-12.3-12.3-12.3C5.5,9.4,0,14.9,0,21.7S5.5,34,12.3,34c2.5,0,4.8-0.7,6.7-2l3.2,2.8c0,0,0.5,0.5,1-0.1L25.5,32.2z    M19.4,21.7c0,3.9-3.2,7.1-7.1,7.1s-7.1-3.2-7.1-7.1s3.2-7.1,7.1-7.1S19.4,17.8,19.4,21.7z"
   class="st0"
   id="path14" />
	<path
   d="M99.6,32.4l-4-3.3c1.4-2.2,2.2-4.8,2.2-7.5   c0-7.8-6.3-14.1-14.1-14.1s-14.1,6.3-14.1,14.1s6.3,14.1,14.1,14.1c3,0,5.8-1,8.1-2.6l4.2,3.5c0,0,0.6,0.5,1.2-0.1l2.5-3   C99.7,33.6,100.2,32.9,99.6,32.4z M92.4,21.6c0,4.8-3.9,8.7-8.7,8.7c-4.8,0-8.7-3.9-8.7-8.7s3.9-8.7,8.7-8.7   C88.5,12.9,92.4,16.8,92.4,21.6z"
   class="st1"
   id="path16" />
	<path
   d="M78.1,21.6c0-3.1,2.5-5.6,5.6-5.6s5.6,2.5,5.6,5.6   s-2.5,5.6-5.6,5.6C80.6,27.1,78.1,24.6,78.1,21.6z"
   class="st0"
   id="path18" />
</g>

<path
   d="m 108.55528,10.829758 h 0.41294 c 0.24044,0 0.40874,-0.05169 0.40874,-0.333 0,-0.236225 -0.17973,-0.328191 -0.40874,-0.328191 h -0.41294 z m 0,0.990583 h -0.20076 V 9.9918485 h 0.66239 c 0.31617,0 0.56081,0.1604895 0.56081,0.5049095 0,0.289121 -0.15688,0.481467 -0.43338,0.509718 l 0.51393,0.813865 h -0.24885 l -0.48508,-0.813865 h -0.36906 z m 0.34502,-2.2095785 c -0.71048,0 -1.25927,0.5776405 -1.25927,1.2995405 0,0.725506 0.54098,1.299539 1.25927,1.299539 0.71769,0 1.25927,-0.574033 1.25927,-1.299539 0,-0.7219 -0.54158,-1.2995405 -1.25927,-1.2995405 M 107.4,10.910303 c 0,-0.830095 0.67802,-1.5003015 1.5003,-1.5003015 0.8301,0 1.4997,0.6780215 1.4997,1.5003015 0,0.82228 -0.6696,1.499699 -1.4997,1.499699 -0.82228,0 -1.5003,-0.677419 -1.5003,-1.499699"
   style="fill:#565353;fill-opacity:1;fill-rule:nonzero;stroke:none;stroke-width:0.06010823"
   id="path22-9" /></svg>